<?xml version="1.0" encoding="UTF-8" standalone="no"?>
<!DOCTYPE svg PUBLIC "-//W3C//DTD SVG 1.1//EN" "http://www.w3.org/Graphics/SVG/1.1/DTD/svg11.dtd">
<svg width="100%" height="100%" viewBox="0 0 1000 1000" version="1.1" xmlns="http://www.w3.org/2000/svg" xmlns:xlink="http://www.w3.org/1999/xlink" xml:space="preserve" xmlns:serif="http://www.serif.com/" style="fill-rule:evenodd;clip-rule:evenodd;stroke-linecap:round;stroke-linejoin:round;stroke-miterlimit:1.5;">
    <g transform="matrix(1,0,0,1,-4670,-1162.46)">
        <g transform="matrix(1,0,0,1,108.287,1162.46)">
            <rect id="Artboard1" x="4561.71" y="0" width="1000" height="1000" style="fill:none;"/>
            <g id="Artboard11" serif:id="Artboard1">
                <g id="dark-icon" serif:id="dark icon" transform="matrix(0.925926,0,0,0.740741,4561.71,0)">
                    <g transform="matrix(1.27459,0,0,1.59323,-1469.51,89.7214)">
                        <path d="M1576.6,46.149C1753.88,46.149 1897.8,190.075 1897.8,367.353C1897.8,544.63 1753.88,688.556 1576.6,688.556C1399.32,688.556 1255.39,544.63 1255.39,367.353C1255.39,190.075 1399.32,46.149 1576.6,46.149ZM1576.6,206.751C1665.24,206.751 1737.2,278.714 1737.2,367.353C1737.2,455.991 1665.24,527.954 1576.6,527.954C1487.96,527.954 1416,455.991 1416,367.353C1416,278.714 1487.96,206.751 1576.6,206.751Z" style="fill:white;"/>
                    </g>
                    <g transform="matrix(1.44163,0,0,1.77614,-1887.8,-351.224)">
                        <circle cx="1684.06" cy="577.784" r="230.643" style="fill:white;"/>
                    </g>
                    <g transform="matrix(1.36038,0,0,1.36038,-194.604,-243.255)">
                        <g transform="matrix(1.38138,0,0,1.72672,-1808.91,-233.31)">
                            <path d="M1700.41,413.801C1762.35,413.801 1812.64,464.09 1812.64,526.031C1812.64,587.973 1762.35,638.262 1700.41,638.262C1638.47,638.262 1588.18,587.973 1588.18,526.031C1588.18,464.09 1638.47,413.801 1700.41,413.801ZM1700.41,484.807C1723.16,484.807 1741.64,503.279 1741.64,526.031C1741.64,548.783 1723.16,567.255 1700.41,567.255C1677.66,567.255 1659.19,548.783 1659.19,526.031C1659.19,503.279 1677.66,484.807 1700.41,484.807Z"/>
                        </g>
                        <g transform="matrix(1.38138,0,0,1.72672,-1800.32,-179.809)">
                            <circle cx="1694.19" cy="495.047" r="52.069" style="fill:white;"/>
                        </g>
                        <g transform="matrix(0.520075,0,0,0.650093,-344.341,333.031)">
                            <path d="M1700.41,413.801C1762.35,413.801 1812.64,464.09 1812.64,526.031C1812.64,587.973 1762.35,638.262 1700.41,638.262C1638.47,638.262 1588.18,587.973 1588.18,526.031C1588.18,464.09 1638.47,413.801 1700.41,413.801ZM1700.41,441.858C1746.87,441.858 1784.59,479.575 1784.59,526.031C1784.59,572.488 1746.87,610.204 1700.41,610.204C1653.96,610.204 1616.24,572.488 1616.24,526.031C1616.24,479.575 1653.96,441.858 1700.41,441.858Z"/>
                        </g>
                    </g>
                    <g id="grooves">
                        <g transform="matrix(1.08,0,0,1.35,-2569.1,8.02194)">
                            <circle cx="2878.8" cy="494.058" r="275.693" style="fill:none;stroke:black;stroke-width:5px;"/>
                        </g>
                        <g transform="matrix(1.18872,0,0,1.4859,-2882.09,-59.1217)">
                            <circle cx="2878.8" cy="494.058" r="275.693" style="fill:none;stroke:black;stroke-width:4.54px;"/>
                        </g>
                        <g transform="matrix(1.30839,0,0,1.63549,-3226.59,-133.025)">
                            <circle cx="2878.8" cy="494.058" r="275.693" style="fill:none;stroke:black;stroke-width:4.13px;"/>
                        </g>
                        <g transform="matrix(1.40326,0,0,1.75407,-3499.69,-191.612)">
                            <circle cx="2878.8" cy="494.058" r="275.693" style="fill:none;stroke:black;stroke-width:3.85px;"/>
                        </g>
                    </g>
                </g>
            </g>
        </g>
    </g>
</svg>
